G04 DipTrace 4.0.0.2*
G04 1 - Top.gbr*
%MOIN*%
G04 #@! TF.FileFunction,Copper,L1,Top*
G04 #@! TF.Part,Single*
G04 #@! TA.AperFunction,Conductor*
%ADD15C,0.012992*%
G04 #@! TA.AperFunction,CopperBalancing*
%ADD16C,0.008*%
G04 #@! TA.AperFunction,ViaPad*
%ADD19C,0.04*%
%FSLAX26Y26*%
G04*
G70*
G90*
G75*
G01*
G04 Top*
%LPD*%
X1504282Y732578D2*
D15*
X1516215Y744511D1*
D19*
X1504282Y732578D3*
X440863Y3169716D2*
D16*
X1009185D1*
X440863Y3101716D2*
X1009185D1*
X457893Y3033716D2*
X944716D1*
X548565Y2965716D2*
X859716D1*
X598332Y2897716D2*
X812325D1*
X598332Y2829716D2*
X812325D1*
X598332Y2761716D2*
X812325D1*
X598332Y2693716D2*
X812325D1*
X598332Y2625716D2*
X812325D1*
X598332Y2557716D2*
X812325D1*
X598332Y2489716D2*
X812325D1*
X598332Y2421716D2*
X812325D1*
X598332Y2353716D2*
X812325D1*
X598332Y2285716D2*
X812325D1*
X598332Y2217716D2*
X812325D1*
X598332Y2149716D2*
X812325D1*
X598332Y2081716D2*
X812325D1*
X598332Y2013716D2*
X812325D1*
X598332Y1945716D2*
X812325D1*
X598332Y1877716D2*
X812325D1*
X598332Y1809716D2*
X812325D1*
X598332Y1741716D2*
X812325D1*
X598332Y1673716D2*
X812325D1*
X598332Y1605716D2*
X812325D1*
X598332Y1537716D2*
X812325D1*
X598332Y1469716D2*
X1055481D1*
X496284Y1401716D2*
X518402D1*
X593612D2*
X1113028D1*
X426409Y1333716D2*
X452418D1*
X585800D2*
X1170560D1*
X445112Y1265716D2*
X483513D1*
X554706D2*
X1228106D1*
X613253Y1197716D2*
X1285637D1*
X647253Y1129716D2*
X1343185D1*
X681253Y1061716D2*
X1400716D1*
X715253Y993716D2*
X1457185D1*
X749253Y925716D2*
X1508185D1*
X783253Y857716D2*
X1559185D1*
X817253Y789716D2*
X1610185D1*
X851253Y721716D2*
X1661185D1*
X885253Y653716D2*
X1712185D1*
X1590472Y585716D2*
X1763185D1*
X1631269Y517716D2*
X1678809D1*
X1672081Y449716D2*
X1684246D1*
X493211Y3236907D2*
Y3007430D1*
Y1400283D2*
Y1385117D1*
Y1260361D2*
Y1237508D1*
X561211Y3236907D2*
Y2956430D1*
Y1387877D2*
Y1375398D1*
Y1270065D2*
Y1251039D1*
X629211Y3236907D2*
Y1165008D1*
X697211Y3236907D2*
Y1029008D1*
X765211Y3236907D2*
Y893008D1*
X833211Y3236907D2*
Y2944665D1*
Y1504627D2*
Y757008D1*
X901211Y3236907D2*
Y2999070D1*
Y1504627D2*
Y621352D1*
X969211Y3236907D2*
Y3053477D1*
Y1504627D2*
Y621352D1*
X1037211Y1491455D2*
Y621352D1*
X1105211Y1411095D2*
Y621352D1*
X1173211Y1330735D2*
Y621352D1*
X1241211Y1250361D2*
Y621352D1*
X1309211Y1170002D2*
Y621352D1*
X1377211Y1089642D2*
Y621352D1*
X1445211Y1009283D2*
Y621352D1*
X1513211Y919267D2*
Y621352D1*
X1581211Y828611D2*
Y600617D1*
X1649211Y737939D2*
Y487289D1*
X1717211Y647267D2*
Y552024D1*
X1785211Y556611D2*
Y537882D1*
X1722662Y423696D2*
X1716971Y425431D1*
X1713249Y426897D1*
X1709623Y428583D1*
X1706103Y430482D1*
X1702704Y432590D1*
X1699438Y434897D1*
X1696315Y437396D1*
X1693346Y440075D1*
X1690544Y442930D1*
X1687917Y445945D1*
X1685476Y449113D1*
X1683229Y452422D1*
X1681183Y455859D1*
X1679347Y459411D1*
X1677728Y463069D1*
X1676329Y466815D1*
X1675158Y470640D1*
X1674217Y474527D1*
X1673511Y478462D1*
X1673042Y482435D1*
X1672811Y486427D1*
X1672818Y490427D1*
X1673067Y494419D1*
X1673553Y498389D1*
X1674275Y502322D1*
X1675233Y506205D1*
X1676421Y510024D1*
X1677834Y513766D1*
X1679469Y517415D1*
X1681321Y520960D1*
X1683380Y524389D1*
X1685641Y527687D1*
X1688097Y530844D1*
X1690736Y533850D1*
X1693549Y536692D1*
X1696528Y539360D1*
X1699662Y541844D1*
X1702939Y544138D1*
X1706347Y546231D1*
X1709875Y548116D1*
X1713509Y549787D1*
X1717236Y551237D1*
X1721043Y552462D1*
X1724917Y553456D1*
X1728842Y554217D1*
X1732808Y554742D1*
X1736796Y555028D1*
X1740796Y555075D1*
X1744791Y554884D1*
X1748767Y554453D1*
X1752710Y553785D1*
X1756606Y552882D1*
X1760441Y551747D1*
X1764202Y550386D1*
X1767874Y548801D1*
X1771444Y547001D1*
X1774901Y544987D1*
X1778231Y542773D1*
X1781422Y540363D1*
X1784464Y537766D1*
X1787345Y534991D1*
X1790053Y532049D1*
X1792582Y528951D1*
X1794921Y525707D1*
X1797385Y521739D1*
X1797380Y541175D1*
X1449580Y1004914D1*
X1026061Y1505436D1*
X816502Y1505481D1*
X815312Y1505868D1*
X814300Y1506604D1*
X813564Y1507616D1*
X813177Y1508806D1*
X813128Y1521434D1*
X813199Y2926633D1*
X813624Y2927810D1*
X814392Y2928800D1*
X1009983Y3085287D1*
X1009965Y3237716D1*
X440043D1*
X440057Y3046506D1*
X596366Y2929213D1*
X597102Y2928201D1*
X597488Y2927011D1*
X597538Y2914393D1*
X597484Y1416665D1*
X594170Y1403531D1*
X593492Y1402480D1*
X584615Y1392667D1*
X583523Y1392057D1*
X571086Y1387541D1*
X569836Y1387512D1*
X556762Y1389335D1*
X526535Y1401326D1*
X499284Y1402776D1*
X472997Y1395455D1*
X450421Y1380127D1*
X433917Y1358397D1*
X425210Y1332536D1*
X425211Y1305247D1*
X433921Y1279388D1*
X450427Y1257658D1*
X473005Y1242334D1*
X499292Y1235015D1*
X526542Y1236468D1*
X579217Y1257339D1*
X580465Y1257427D1*
X581681Y1257127D1*
X582742Y1256464D1*
X583548Y1255506D1*
X901046Y620537D1*
X1566862Y620535D1*
X1568076Y620231D1*
X1569136Y619567D1*
X1569941Y618608D1*
X1686879Y423712D1*
X1722543Y423700D1*
X585794Y1318738D2*
X585434Y1314755D1*
X584838Y1310800D1*
X584006Y1306888D1*
X582941Y1303033D1*
X581648Y1299249D1*
X580129Y1295548D1*
X578393Y1291945D1*
X576444Y1288453D1*
X574291Y1285083D1*
X571938Y1281848D1*
X569397Y1278760D1*
X566675Y1275830D1*
X563783Y1273067D1*
X560731Y1270483D1*
X557528Y1268087D1*
X554190Y1265886D1*
X550724Y1263889D1*
X547147Y1262102D1*
X543468Y1260533D1*
X539702Y1259187D1*
X535862Y1258069D1*
X531962Y1257183D1*
X528015Y1256531D1*
X524038Y1256117D1*
X520042Y1255941D1*
X516043Y1256006D1*
X512055Y1256309D1*
X508093Y1256851D1*
X504170Y1257628D1*
X500300Y1258638D1*
X496498Y1259880D1*
X492776Y1261346D1*
X489150Y1263032D1*
X485631Y1264931D1*
X482232Y1267039D1*
X478965Y1269346D1*
X475842Y1271844D1*
X472874Y1274524D1*
X470072Y1277378D1*
X467444Y1280394D1*
X465004Y1283562D1*
X462757Y1286871D1*
X460711Y1290308D1*
X458875Y1293860D1*
X457255Y1297518D1*
X455857Y1301264D1*
X454686Y1305088D1*
X453745Y1308976D1*
X453039Y1312911D1*
X452569Y1316884D1*
X452338Y1320876D1*
X452346Y1324876D1*
X452594Y1328868D1*
X453081Y1332838D1*
X453803Y1336771D1*
X454761Y1340654D1*
X455948Y1344473D1*
X457362Y1348214D1*
X458997Y1351864D1*
X460849Y1355409D1*
X462908Y1358838D1*
X465169Y1362136D1*
X467624Y1365293D1*
X470263Y1368298D1*
X473077Y1371141D1*
X476056Y1373809D1*
X479190Y1376293D1*
X482467Y1378587D1*
X485875Y1380680D1*
X489402Y1382565D1*
X493036Y1384235D1*
X496763Y1385686D1*
X500570Y1386911D1*
X504444Y1387905D1*
X508370Y1388666D1*
X512336Y1389191D1*
X516324Y1389477D1*
X520324Y1389524D1*
X524318Y1389333D1*
X528295Y1388902D1*
X532237Y1388234D1*
X536133Y1387331D1*
X539968Y1386196D1*
X543729Y1384835D1*
X547401Y1383250D1*
X550972Y1381449D1*
X554429Y1379436D1*
X557758Y1377222D1*
X560950Y1374812D1*
X563992Y1372214D1*
X566872Y1369440D1*
X569581Y1366498D1*
X572110Y1363399D1*
X574448Y1360155D1*
X576589Y1356776D1*
X578523Y1353276D1*
X580244Y1349666D1*
X581746Y1345959D1*
X583023Y1342169D1*
X584072Y1338309D1*
X584888Y1334394D1*
X585467Y1330438D1*
X585809Y1326452D1*
X585913Y1322735D1*
X585794Y1318738D1*
M02*
