G04 DipTrace 4.0.0.2*
G04 BottomDimension.gbr*
%MOIN*%
G04 #@! TF.FileFunction,Drawing,Bot*
G04 #@! TF.Part,Single*
%ADD12C,0.001181*%
%ADD32C,0.006176*%
%FSLAX26Y26*%
G04*
G70*
G90*
G75*
G01*
G04 BotDimension*
%LPD*%
X567538Y2913385D2*
D12*
Y3900196D1*
X843128Y2913385D2*
Y3900196D1*
X567538Y3880511D2*
X843128D1*
X508483D2*
X528168D1*
G36*
X567538D2*
X528168Y3872637D1*
Y3888385D1*
X567538Y3880511D1*
G37*
X902183D2*
D12*
X882498D1*
G36*
X843128D2*
X882498Y3888385D1*
Y3872637D1*
X843128Y3880511D1*
G37*
X805313Y3923319D2*
D32*
Y3925220D1*
X803412Y3929067D1*
X801511Y3930968D1*
X797664Y3932870D1*
X790015D1*
X786212Y3930968D1*
X784311Y3929067D1*
X782365Y3925220D1*
Y3921418D1*
X784311Y3917571D1*
X788113Y3911867D1*
X807259Y3892722D1*
X780464D1*
X760463D2*
X741318Y3932870D1*
X768113D1*
X706019D2*
X725120D1*
X727021Y3915670D1*
X725120Y3917571D1*
X719372Y3919516D1*
X713668D1*
X707920Y3917571D1*
X704073Y3913768D1*
X702172Y3908020D1*
Y3904218D1*
X704073Y3898470D1*
X707920Y3894623D1*
X713668Y3892722D1*
X719372D1*
X725120Y3894623D1*
X727021Y3896569D1*
X728967Y3900371D1*
X687919Y3896569D2*
X689820Y3894623D1*
X687919Y3892722D1*
X685974Y3894623D1*
X687919Y3896569D1*
X650674Y3932870D2*
X669776D1*
X671677Y3915670D1*
X669776Y3917571D1*
X664028Y3919516D1*
X658324D1*
X652576Y3917571D1*
X648729Y3913768D1*
X646828Y3908020D1*
Y3904218D1*
X648729Y3898470D1*
X652576Y3894623D1*
X658324Y3892722D1*
X664028D1*
X669776Y3894623D1*
X671677Y3896569D1*
X673622Y3900371D1*
X609583Y3919516D2*
X611528Y3913768D1*
X615331Y3909922D1*
X621079Y3908020D1*
X622980D1*
X628728Y3909922D1*
X632531Y3913768D1*
X634476Y3919516D1*
Y3921418D1*
X632531Y3927166D1*
X628728Y3930968D1*
X622980Y3932870D1*
X621079D1*
X615331Y3930968D1*
X611528Y3927166D1*
X609583Y3919516D1*
Y3909922D1*
X611528Y3900371D1*
X615331Y3894623D1*
X621079Y3892722D1*
X624881D1*
X630629Y3894623D1*
X632531Y3898470D1*
M02*
