G04 DipTrace 4.0.0.2*
G04 BottomSilk.gbr*
%MOIN*%
G04 #@! TF.FileFunction,Legend,Bot*
G04 #@! TF.Part,Single*
%ADD10C,0.004724*%
%ADD29C,0.00772*%
%FSLAX26Y26*%
G04*
G70*
G90*
G75*
G01*
G04 BotSilk*
%LPD*%
X1029349Y3312991D2*
D10*
Y3411398D1*
X429324D1*
Y3312991D1*
X1029349D1*
X459615Y3234256D2*
Y3312991D1*
X499036Y3234256D2*
Y3312991D1*
X559681Y3234256D2*
Y3312991D1*
X599040Y3234256D2*
Y3312991D1*
X459615Y3411398D2*
Y3608263D1*
X499036Y3411398D2*
Y3608263D1*
X459615D2*
X479357Y3641338D1*
X499036Y3608263D2*
X479357Y3641338D1*
X559681Y3411398D2*
Y3608263D1*
X599040Y3411398D2*
Y3608263D1*
X559681D2*
X579360Y3641338D1*
X599040Y3608263D2*
X579360Y3641338D1*
X659623Y3234256D2*
Y3312991D1*
X698983Y3234256D2*
Y3312991D1*
X759689Y3234256D2*
Y3312991D1*
X799049Y3234256D2*
Y3312991D1*
X659623Y3411398D2*
Y3608263D1*
X698983Y3411398D2*
Y3608263D1*
X659623D2*
X679303Y3641338D1*
X698983Y3608263D2*
X679303Y3641338D1*
X759689Y3411398D2*
Y3608263D1*
X799049Y3411398D2*
Y3608263D1*
X759689D2*
X779368Y3641338D1*
X799049Y3608263D2*
X779368Y3641338D1*
X859694Y3234256D2*
Y3312991D1*
X899053Y3234256D2*
Y3312991D1*
X959636Y3234256D2*
Y3312991D1*
X998996Y3234256D2*
Y3312991D1*
X859694Y3411398D2*
Y3608263D1*
X899053Y3411398D2*
Y3608263D1*
X859694D2*
X879374Y3641338D1*
X899053Y3608263D2*
X879374Y3641338D1*
X959636Y3411398D2*
Y3608263D1*
X998996Y3411398D2*
Y3608263D1*
X959636D2*
X979316Y3641338D1*
X998996Y3608263D2*
X979316Y3641338D1*
G36*
X426210Y3171322D2*
X428010Y3171204D1*
X429778Y3170852D1*
X431486Y3170273D1*
X433103Y3169475D1*
X434602Y3168473D1*
X435958Y3167284D1*
X437147Y3165929D1*
X438149Y3164429D1*
X438946Y3162812D1*
X439526Y3161105D1*
X439878Y3159336D1*
X439996Y3157537D1*
X439878Y3155737D1*
X439526Y3153969D1*
X438946Y3152261D1*
X438149Y3150644D1*
X437147Y3149145D1*
X435958Y3147789D1*
X434602Y3146600D1*
X433103Y3145598D1*
X431486Y3144801D1*
X429778Y3144221D1*
X428010Y3143869D1*
X426210Y3143751D1*
X426205D1*
X424406Y3143869D1*
X422637Y3144221D1*
X420930Y3144801D1*
X419312Y3145598D1*
X417813Y3146600D1*
X416457Y3147789D1*
X415268Y3149145D1*
X414266Y3150644D1*
X413469Y3152261D1*
X412889Y3153969D1*
X412537Y3155737D1*
X412420Y3157537D1*
X412537Y3159336D1*
X412889Y3161105D1*
X413469Y3162812D1*
X414266Y3164429D1*
X415268Y3165929D1*
X416457Y3167284D1*
X417813Y3168473D1*
X419312Y3169475D1*
X420929Y3170273D1*
X422637Y3170852D1*
X424406Y3171204D1*
X426205Y3171322D1*
X426210D1*
G37*
X893128Y968602D2*
D10*
Y653641D1*
X1404939D1*
Y968602D1*
X893128D1*
X1374804Y1044244D2*
D29*
X1353249D1*
X1346119Y1046621D1*
X1343687Y1049052D1*
X1341311Y1053806D1*
Y1060991D1*
X1343687Y1065744D1*
X1346119Y1068176D1*
X1353249Y1070552D1*
X1374804D1*
Y1020312D1*
X1313933Y1053806D2*
X1318686Y1051429D1*
X1323495Y1046621D1*
X1325871Y1039436D1*
Y1034682D1*
X1323495Y1027497D1*
X1318686Y1022744D1*
X1313933Y1020312D1*
X1306748D1*
X1301940Y1022744D1*
X1297186Y1027497D1*
X1294755Y1034682D1*
Y1039436D1*
X1297186Y1046621D1*
X1301940Y1051429D1*
X1306748Y1053806D1*
X1313933D1*
X1250630Y1051429D2*
Y1013127D1*
X1253007Y1005998D1*
X1255384Y1003566D1*
X1260192Y1001189D1*
X1267377D1*
X1272130Y1003566D1*
X1250630Y1044244D2*
X1255384Y1048997D1*
X1260192Y1051429D1*
X1267377D1*
X1272130Y1048997D1*
X1276939Y1044244D1*
X1279315Y1037059D1*
Y1032251D1*
X1276939Y1025121D1*
X1272130Y1020312D1*
X1267377Y1017936D1*
X1260192D1*
X1255384Y1020312D1*
X1250630Y1025121D1*
X1223253Y1053806D2*
X1228006Y1051429D1*
X1232815Y1046621D1*
X1235191Y1039436D1*
Y1034682D1*
X1232815Y1027497D1*
X1228006Y1022744D1*
X1223253Y1020312D1*
X1216068D1*
X1211260Y1022744D1*
X1206506Y1027497D1*
X1204075Y1034682D1*
Y1039436D1*
X1206506Y1046621D1*
X1211260Y1051429D1*
X1216068Y1053806D1*
X1223253D1*
X1140034D2*
Y1003566D1*
Y1046621D2*
X1135226Y1051374D1*
X1130473Y1053806D1*
X1123288D1*
X1118479Y1051374D1*
X1113726Y1046621D1*
X1111294Y1039436D1*
Y1034627D1*
X1113726Y1027497D1*
X1118479Y1022689D1*
X1123288Y1020312D1*
X1130473D1*
X1135226Y1022689D1*
X1140034Y1027497D1*
X1095855Y1070552D2*
X1093478Y1068176D1*
X1091046Y1070552D1*
X1093478Y1072984D1*
X1095855Y1070552D1*
X1093478Y1053806D2*
Y1020312D1*
X1075607Y1053806D2*
Y1020312D1*
Y1044244D2*
X1068422Y1051429D1*
X1063614Y1053806D1*
X1056484D1*
X1051675Y1051429D1*
X1049299Y1044244D1*
Y1020312D1*
X985259Y1070552D2*
Y1020312D1*
Y1044244D2*
X978074Y1051429D1*
X973265Y1053806D1*
X966080D1*
X961327Y1051429D1*
X958950Y1044244D1*
Y1020312D1*
X914826Y1070552D2*
Y1020312D1*
Y1046621D2*
X919579Y1051429D1*
X924388Y1053806D1*
X931573D1*
X936326Y1051429D1*
X941135Y1046621D1*
X943511Y1039436D1*
Y1034682D1*
X941135Y1027497D1*
X936326Y1022744D1*
X931573Y1020312D1*
X924388D1*
X919579Y1022744D1*
X914826Y1027497D1*
X899387Y1053806D2*
Y1020312D1*
Y1039436D2*
X896955Y1046621D1*
X892202Y1051429D1*
X887394Y1053806D1*
X880208D1*
X1149384Y3352233D2*
Y3390479D1*
X1147007Y3397664D1*
X1144575Y3400041D1*
X1139822Y3402473D1*
X1135014D1*
X1130260Y3400041D1*
X1127884Y3397664D1*
X1125452Y3390479D1*
Y3385726D1*
X1167255Y3364226D2*
Y3361850D1*
X1169631Y3357041D1*
X1172008Y3354665D1*
X1176816Y3352288D1*
X1186378D1*
X1191131Y3354665D1*
X1193508Y3357041D1*
X1195940Y3361850D1*
Y3366603D1*
X1193508Y3371411D1*
X1188755Y3378541D1*
X1164823Y3402473D1*
X1198316D1*
M02*
