G04 DipTrace 4.0.0.2*
G04 TopDimension.gbr*
%MOIN*%
G04 #@! TF.FileFunction,Drawing,Top*
G04 #@! TF.Part,Single*
%ADD12C,0.001181*%
%ADD32C,0.006176*%
%FSLAX26Y26*%
G04*
G70*
G90*
G75*
G01*
G04 TopDimension*
%LPD*%
X999427Y889665D2*
D12*
X-790336D1*
X929349Y3255511D2*
X-790336D1*
X-770651Y2072588D2*
Y929035D1*
G36*
Y889665D2*
X-778525Y929035D1*
X-762777D1*
X-770651Y889665D1*
G37*
Y2072588D2*
D12*
Y3216141D1*
G36*
Y3255511D2*
X-762777Y3216141D1*
X-778525D1*
X-770651Y3255511D1*
G37*
X567538Y2913385D2*
D12*
Y3669196D1*
X843128Y2913385D2*
Y3669196D1*
X567538Y3649511D2*
X843128D1*
X508483D2*
X528168D1*
G36*
X567538D2*
X528168Y3641637D1*
Y3657385D1*
X567538Y3649511D1*
G37*
X902183D2*
D12*
X882498D1*
G36*
X843128D2*
X882498Y3657385D1*
Y3641637D1*
X843128Y3649511D1*
G37*
X-813459Y1959254D2*
D32*
X-815361D1*
X-819207Y1961156D1*
X-821109Y1963057D1*
X-823010Y1966904D1*
Y1974553D1*
X-821109Y1978356D1*
X-819207Y1980257D1*
X-815361Y1982202D1*
X-811558D1*
X-807711Y1980257D1*
X-802007Y1976454D1*
X-782862Y1957309D1*
Y1984104D1*
X-823010Y2000302D2*
Y2021304D1*
X-807711Y2009852D1*
Y2015600D1*
X-805810Y2019403D1*
X-803909Y2021304D1*
X-798161Y2023250D1*
X-794358D1*
X-788610Y2021304D1*
X-784763Y2017502D1*
X-782862Y2011754D1*
Y2006006D1*
X-784763Y2000302D1*
X-786709Y1998400D1*
X-790511Y1996455D1*
X-817306Y2058549D2*
X-821109Y2056648D1*
X-823010Y2050900D1*
Y2047097D1*
X-821109Y2041349D1*
X-815361Y2037502D1*
X-805810Y2035601D1*
X-796259D1*
X-788610Y2037502D1*
X-784763Y2041349D1*
X-782862Y2047097D1*
Y2048998D1*
X-784763Y2054702D1*
X-788610Y2058549D1*
X-794358Y2060450D1*
X-796259D1*
X-802007Y2058549D1*
X-805810Y2054702D1*
X-807711Y2048998D1*
Y2047097D1*
X-805810Y2041349D1*
X-802007Y2037502D1*
X-796259Y2035601D1*
X-823010Y2095750D2*
Y2076648D1*
X-805810Y2074747D1*
X-807711Y2076648D1*
X-809657Y2082396D1*
Y2088100D1*
X-807711Y2093848D1*
X-803909Y2097695D1*
X-798161Y2099596D1*
X-794358D1*
X-788610Y2097695D1*
X-784763Y2093848D1*
X-782862Y2088100D1*
Y2082396D1*
X-784763Y2076648D1*
X-786709Y2074747D1*
X-790511Y2072802D1*
X-786709Y2113849D2*
X-784763Y2111948D1*
X-782862Y2113849D1*
X-784763Y2115794D1*
X-786709Y2113849D1*
X-823010Y2137696D2*
X-821109Y2131993D1*
X-817306Y2130047D1*
X-813459D1*
X-809657Y2131993D1*
X-807711Y2135795D1*
X-805810Y2143444D1*
X-803909Y2149192D1*
X-800062Y2152995D1*
X-796259Y2154896D1*
X-790511D1*
X-786709Y2152995D1*
X-784763Y2151094D1*
X-782862Y2145346D1*
Y2137696D1*
X-784763Y2131993D1*
X-786709Y2130047D1*
X-790511Y2128146D1*
X-796259D1*
X-800062Y2130047D1*
X-803909Y2133894D1*
X-805810Y2139598D1*
X-807711Y2147247D1*
X-809657Y2151094D1*
X-813459Y2152995D1*
X-817306D1*
X-821109Y2151094D1*
X-823010Y2145346D1*
Y2137696D1*
Y2190196D2*
Y2171094D1*
X-805810Y2169193D1*
X-807711Y2171094D1*
X-809657Y2176842D1*
Y2182546D1*
X-807711Y2188294D1*
X-803909Y2192141D1*
X-798161Y2194042D1*
X-794358D1*
X-788610Y2192141D1*
X-784763Y2188294D1*
X-782862Y2182546D1*
Y2176842D1*
X-784763Y2171094D1*
X-786709Y2169193D1*
X-790511Y2167248D1*
X611528Y3692319D2*
Y3694220D1*
X613430Y3698067D1*
X615331Y3699968D1*
X619178Y3701870D1*
X626827D1*
X630629Y3699968D1*
X632531Y3698067D1*
X634476Y3694220D1*
Y3690418D1*
X632531Y3686571D1*
X628728Y3680867D1*
X609583Y3661722D1*
X636378D1*
X656378D2*
X675524Y3701870D1*
X648729D1*
X710823D2*
X691722D1*
X689820Y3684670D1*
X691722Y3686571D1*
X697470Y3688516D1*
X703174D1*
X708922Y3686571D1*
X712768Y3682768D1*
X714670Y3677020D1*
Y3673218D1*
X712768Y3667470D1*
X708922Y3663623D1*
X703174Y3661722D1*
X697470D1*
X691722Y3663623D1*
X689820Y3665569D1*
X687875Y3669371D1*
X728922Y3665569D2*
X727021Y3663623D1*
X728922Y3661722D1*
X730868Y3663623D1*
X728922Y3665569D1*
X766167Y3701870D2*
X747066D1*
X745165Y3684670D1*
X747066Y3686571D1*
X752814Y3688516D1*
X758518D1*
X764266Y3686571D1*
X768113Y3682768D1*
X770014Y3677020D1*
Y3673218D1*
X768113Y3667470D1*
X764266Y3663623D1*
X758518Y3661722D1*
X752814D1*
X747066Y3663623D1*
X745165Y3665569D1*
X743219Y3669371D1*
X807259Y3688516D2*
X805313Y3682768D1*
X801511Y3678922D1*
X795763Y3677020D1*
X793861D1*
X788113Y3678922D1*
X784311Y3682768D1*
X782365Y3688516D1*
Y3690418D1*
X784311Y3696166D1*
X788113Y3699968D1*
X793861Y3701870D1*
X795763D1*
X801511Y3699968D1*
X805313Y3696166D1*
X807259Y3688516D1*
Y3678922D1*
X805313Y3669371D1*
X801511Y3663623D1*
X795763Y3661722D1*
X791960D1*
X786212Y3663623D1*
X784311Y3667470D1*
M02*
