G04 DipTrace 4.0.0.2*
G04 TopSilk.gbr*
%MOIN*%
G04 #@! TF.FileFunction,Legend,Top*
G04 #@! TF.Part,Single*
%ADD10C,0.004724*%
%ADD29C,0.00772*%
%ADD30C,0.004632*%
%ADD31C,0.003088*%
%FSLAX26Y26*%
G04*
G70*
G90*
G75*
G01*
G04 TopSilk*
%LPD*%
X893128Y968602D2*
D10*
Y653641D1*
X1404939D1*
Y968602D1*
X893128D1*
X703665Y1376551D2*
D30*
X716598D1*
X720875Y1377977D1*
X722335Y1379436D1*
X723761Y1382288D1*
Y1386599D1*
X722335Y1389451D1*
X720875Y1390910D1*
X716598Y1392336D1*
X703665D1*
Y1362192D1*
X733024Y1392336D2*
X734450Y1390910D1*
X735909Y1392336D1*
X734450Y1393795D1*
X733024Y1392336D1*
X734450Y1382288D2*
Y1362192D1*
X745173Y1382288D2*
Y1362192D1*
Y1376551D2*
X749484Y1380862D1*
X752369Y1382288D1*
X756647D1*
X759532Y1380862D1*
X760958Y1376551D1*
Y1362192D1*
X770221Y1373666D2*
X787432D1*
Y1376551D1*
X786006Y1379436D1*
X784580Y1380862D1*
X781695Y1382288D1*
X777384D1*
X774532Y1380862D1*
X771647Y1377977D1*
X770221Y1373666D1*
Y1370814D1*
X771647Y1366503D1*
X774532Y1363651D1*
X777384Y1362192D1*
X781695D1*
X784580Y1363651D1*
X787432Y1366503D1*
X796696Y1376551D2*
X809629D1*
X813907Y1377977D1*
X815366Y1379436D1*
X816792Y1382288D1*
Y1386599D1*
X815366Y1389451D1*
X813907Y1390910D1*
X809629Y1392336D1*
X796696D1*
Y1362192D1*
X826055Y1392336D2*
Y1362192D1*
Y1376551D2*
X830366Y1380862D1*
X833251Y1382288D1*
X837562D1*
X840414Y1380862D1*
X841840Y1376551D1*
Y1362192D1*
X858267Y1382288D2*
X855415Y1380862D1*
X852530Y1377977D1*
X851104Y1373666D1*
Y1370814D1*
X852530Y1366503D1*
X855415Y1363651D1*
X858267Y1362192D1*
X862578D1*
X865463Y1363651D1*
X868315Y1366503D1*
X869774Y1370814D1*
Y1373666D1*
X868315Y1377977D1*
X865463Y1380862D1*
X862578Y1382288D1*
X858267D1*
X879037D2*
Y1362192D1*
Y1376551D2*
X883348Y1380862D1*
X886233Y1382288D1*
X890511D1*
X893396Y1380862D1*
X894822Y1376551D1*
Y1362192D1*
X904086Y1373666D2*
X921297D1*
Y1376551D1*
X919871Y1379436D1*
X918445Y1380862D1*
X915560Y1382288D1*
X911249D1*
X908397Y1380862D1*
X905512Y1377977D1*
X904086Y1373666D1*
Y1370814D1*
X905512Y1366503D1*
X908397Y1363651D1*
X911249Y1362192D1*
X915560D1*
X918445Y1363651D1*
X921297Y1366503D1*
X703665Y1337717D2*
Y1307573D1*
X716598D1*
X720909Y1309032D1*
X722335Y1310458D1*
X723761Y1313310D1*
Y1317621D1*
X722335Y1320506D1*
X720909Y1321932D1*
X716598Y1323358D1*
X720909Y1324817D1*
X722335Y1326243D1*
X723761Y1329095D1*
Y1331980D1*
X722335Y1334832D1*
X720909Y1336291D1*
X716598Y1337717D1*
X703665D1*
Y1323358D2*
X716598D1*
X733024Y1327669D2*
Y1307573D1*
Y1319047D2*
X734483Y1323358D1*
X737335Y1326243D1*
X740220Y1327669D1*
X744531D1*
X753795Y1319047D2*
X771006D1*
Y1321932D1*
X769580Y1324817D1*
X768154Y1326243D1*
X765269Y1327669D1*
X760958D1*
X758106Y1326243D1*
X755221Y1323358D1*
X753795Y1319047D1*
Y1316195D1*
X755221Y1311884D1*
X758106Y1309032D1*
X760958Y1307573D1*
X765269D1*
X768154Y1309032D1*
X771006Y1311884D1*
X797480Y1327669D2*
Y1307573D1*
Y1323358D2*
X794628Y1326243D1*
X791743Y1327669D1*
X787465D1*
X784580Y1326243D1*
X781728Y1323358D1*
X780269Y1319047D1*
Y1316195D1*
X781728Y1311884D1*
X784580Y1309032D1*
X787465Y1307573D1*
X791743D1*
X794628Y1309032D1*
X797480Y1311884D1*
X806744Y1337717D2*
Y1307573D1*
X821103Y1327669D2*
X806744Y1313310D1*
X812481Y1319047D2*
X822529Y1307573D1*
X838955Y1327669D2*
X836103Y1326243D1*
X833218Y1323358D1*
X831792Y1319047D1*
Y1316195D1*
X833218Y1311884D1*
X836103Y1309032D1*
X838955Y1307573D1*
X843266D1*
X846151Y1309032D1*
X849003Y1311884D1*
X850462Y1316195D1*
Y1319047D1*
X849003Y1323358D1*
X846151Y1326243D1*
X843266Y1327669D1*
X838955D1*
X859726D2*
Y1313310D1*
X861152Y1309032D1*
X864037Y1307573D1*
X868348D1*
X871200Y1309032D1*
X875511Y1313310D1*
Y1327669D2*
Y1307573D1*
X889085Y1337717D2*
Y1313310D1*
X890511Y1309032D1*
X893396Y1307573D1*
X896248D1*
X884774Y1327669D2*
X894822D1*
X934672Y1337717D2*
Y1307573D1*
X947606D1*
X951917Y1309032D1*
X953343Y1310458D1*
X954768Y1313310D1*
Y1317621D1*
X953343Y1320506D1*
X951917Y1321932D1*
X947606Y1323358D1*
X951917Y1324817D1*
X953343Y1326243D1*
X954768Y1329095D1*
Y1331980D1*
X953343Y1334832D1*
X951917Y1336291D1*
X947606Y1337717D1*
X934672D1*
Y1323358D2*
X947606D1*
X971195Y1327669D2*
X968343Y1326243D1*
X965458Y1323358D1*
X964032Y1319047D1*
Y1316195D1*
X965458Y1311884D1*
X968343Y1309032D1*
X971195Y1307573D1*
X975506D1*
X978391Y1309032D1*
X981243Y1311884D1*
X982702Y1316195D1*
Y1319047D1*
X981243Y1323358D1*
X978391Y1326243D1*
X975506Y1327669D1*
X971195D1*
X1009177D2*
Y1307573D1*
Y1323358D2*
X1006325Y1326243D1*
X1003440Y1327669D1*
X999162D1*
X996277Y1326243D1*
X993425Y1323358D1*
X991966Y1319047D1*
Y1316195D1*
X993425Y1311884D1*
X996277Y1309032D1*
X999162Y1307573D1*
X1003440D1*
X1006325Y1309032D1*
X1009177Y1311884D1*
X1018440Y1327669D2*
Y1307573D1*
Y1319047D2*
X1019899Y1323358D1*
X1022751Y1326243D1*
X1025636Y1327669D1*
X1029947D1*
X1056422Y1337717D2*
Y1307573D1*
Y1323358D2*
X1053570Y1326243D1*
X1050685Y1327669D1*
X1046374D1*
X1043522Y1326243D1*
X1040637Y1323358D1*
X1039211Y1319047D1*
Y1316195D1*
X1040637Y1311884D1*
X1043522Y1309032D1*
X1046374Y1307573D1*
X1050685D1*
X1053570Y1309032D1*
X1056422Y1311884D1*
X703665Y1268740D2*
X716564D1*
X720875Y1270199D1*
X722335Y1271625D1*
X723761Y1274477D1*
Y1277362D1*
X722335Y1280214D1*
X720875Y1281673D1*
X716564Y1283099D1*
X703665D1*
Y1252955D1*
X713713Y1268740D2*
X723761Y1252955D1*
X733024Y1264429D2*
X750235D1*
Y1267314D1*
X748809Y1270199D1*
X747383Y1271625D1*
X744498Y1273051D1*
X740187D1*
X737335Y1271625D1*
X734450Y1268740D1*
X733024Y1264429D1*
Y1261577D1*
X734450Y1257266D1*
X737335Y1254414D1*
X740187Y1252955D1*
X744498D1*
X747383Y1254414D1*
X750235Y1257266D1*
X759499Y1273051D2*
X768121Y1252955D1*
X776710Y1273051D1*
X815134Y1277329D2*
X818019Y1278788D1*
X822330Y1283066D1*
Y1252955D1*
X833019Y1255840D2*
X831593Y1254381D1*
X833019Y1252955D1*
X834478Y1254381D1*
X833019Y1255840D1*
X852364Y1283066D2*
X848053Y1281640D1*
X845168Y1277329D1*
X843742Y1270166D1*
Y1265855D1*
X845168Y1258692D1*
X848053Y1254381D1*
X852364Y1252955D1*
X855216D1*
X859527Y1254381D1*
X862379Y1258692D1*
X863838Y1265855D1*
Y1270166D1*
X862379Y1277329D1*
X859527Y1281640D1*
X855216Y1283066D1*
X852364D1*
X862379Y1277329D2*
X845168Y1258692D1*
X931665Y750946D2*
Y720802D1*
X941713D1*
X946024Y722261D1*
X948909Y725113D1*
X950335Y727998D1*
X951761Y732276D1*
Y739472D1*
X950335Y743783D1*
X948909Y746635D1*
X946024Y749520D1*
X941713Y750946D1*
X931665D1*
X982546Y743783D2*
X981120Y746635D1*
X978235Y749520D1*
X975383Y750946D1*
X969646D1*
X966761Y749520D1*
X963909Y746635D1*
X962450Y743783D1*
X961024Y739472D1*
Y732276D1*
X962450Y727998D1*
X963909Y725113D1*
X966761Y722261D1*
X969646Y720802D1*
X975383D1*
X978235Y722261D1*
X981120Y725113D1*
X982546Y727998D1*
X991810Y750946D2*
Y720802D1*
X1021169Y750946D2*
Y720802D1*
X1001073Y750946D1*
Y720802D1*
X1069460Y750946D2*
Y729424D1*
X1070886Y725113D1*
X1073771Y722261D1*
X1078082Y720802D1*
X1080934D1*
X1085245Y722261D1*
X1088130Y725113D1*
X1089556Y729424D1*
Y750946D1*
X1118915Y746635D2*
X1116063Y749520D1*
X1111752Y750946D1*
X1106015D1*
X1101704Y749520D1*
X1098819Y746635D1*
Y743783D1*
X1100278Y740898D1*
X1101704Y739472D1*
X1104556Y738046D1*
X1113178Y735161D1*
X1116063Y733735D1*
X1117489Y732276D1*
X1118915Y729424D1*
Y725113D1*
X1116063Y722261D1*
X1111752Y720802D1*
X1106015D1*
X1101704Y722261D1*
X1098819Y725113D1*
X1128179Y750946D2*
Y720802D1*
X1141112D1*
X1145423Y722261D1*
X1146849Y723687D1*
X1148275Y726539D1*
Y730850D1*
X1146849Y733735D1*
X1145423Y735161D1*
X1141112Y736587D1*
X1145423Y738046D1*
X1146849Y739472D1*
X1148275Y742324D1*
Y745209D1*
X1146849Y748061D1*
X1145423Y749520D1*
X1141112Y750946D1*
X1128179D1*
Y736587D2*
X1141112D1*
X1157538Y735857D2*
X1174119D1*
X1200594Y750913D2*
X1186268D1*
X1184842Y738013D1*
X1186268Y739439D1*
X1190579Y740898D1*
X1194857D1*
X1199168Y739439D1*
X1202053Y736587D1*
X1203479Y732276D1*
Y729424D1*
X1202053Y725113D1*
X1199168Y722228D1*
X1194857Y720802D1*
X1190579D1*
X1186268Y722228D1*
X1184842Y723687D1*
X1183383Y726539D1*
X1212742Y750946D2*
X1224216Y720802D1*
X1235690Y750946D1*
X1287832Y743783D2*
X1286406Y746635D1*
X1283521Y749520D1*
X1280669Y750946D1*
X1274932D1*
X1272047Y749520D1*
X1269195Y746635D1*
X1267736Y743783D1*
X1266310Y739472D1*
Y732276D1*
X1267736Y727998D1*
X1269195Y725113D1*
X1272047Y722261D1*
X1274932Y720802D1*
X1280669D1*
X1283521Y722261D1*
X1286406Y725113D1*
X1287832Y727998D1*
Y732276D1*
X1280669D1*
X1317192Y750946D2*
Y720802D1*
X1297096Y750946D1*
Y720802D1*
X1326455Y750946D2*
Y720802D1*
X1336503D1*
X1340814Y722261D1*
X1343699Y725113D1*
X1345125Y727998D1*
X1346551Y732276D1*
Y739472D1*
X1345125Y743783D1*
X1343699Y746635D1*
X1340814Y749520D1*
X1336503Y750946D1*
X1326455D1*
X930893Y901295D2*
D31*
X939515D1*
X942367Y902245D1*
X943339Y903218D1*
X944290Y905119D1*
Y907993D1*
X943339Y909895D1*
X942367Y910867D1*
X939515Y911818D1*
X930893D1*
Y891722D1*
X950466Y911818D2*
Y891722D1*
X961940D1*
X968115Y907971D2*
X970039Y908944D1*
X972913Y911796D1*
Y891722D1*
X980061Y907021D2*
Y907971D1*
X981012Y909895D1*
X981962Y910845D1*
X983886Y911796D1*
X987710D1*
X989612Y910845D1*
X990562Y909895D1*
X991535Y907971D1*
Y906070D1*
X990562Y904147D1*
X988661Y901295D1*
X979088Y891722D1*
X992486D1*
X998661Y901759D2*
X1009715D1*
X1015891Y911818D2*
Y891722D1*
X1035464Y911818D2*
Y891722D1*
X1022067Y911818D1*
Y891722D1*
X1048338Y911818D2*
Y891722D1*
X1041640Y911818D2*
X1055037D1*
X1108830Y908426D2*
D30*
Y878282D1*
X1119553Y901230D2*
Y902656D1*
X1120979Y905541D1*
X1122404Y906967D1*
X1125290Y908393D1*
X1131027D1*
X1133878Y906967D1*
X1135304Y905541D1*
X1136763Y902656D1*
Y899804D1*
X1135304Y896919D1*
X1132452Y892641D1*
X1118093Y878282D1*
X1138189D1*
X1168975Y901263D2*
X1167549Y904115D1*
X1164664Y907000D1*
X1161812Y908426D1*
X1156075D1*
X1153190Y907000D1*
X1150338Y904115D1*
X1148879Y901263D1*
X1147453Y896952D1*
Y889756D1*
X1148879Y885478D1*
X1150338Y882593D1*
X1153190Y879741D1*
X1156075Y878282D1*
X1161812D1*
X1164664Y879741D1*
X1167549Y882593D1*
X1168975Y885478D1*
X1266310Y908426D2*
Y878282D1*
X1277033Y901230D2*
Y902656D1*
X1278459Y905541D1*
X1279885Y906967D1*
X1282770Y908393D1*
X1288507D1*
X1291359Y906967D1*
X1292785Y905541D1*
X1294244Y902656D1*
Y899804D1*
X1292785Y896919D1*
X1289933Y892641D1*
X1275574Y878282D1*
X1295670D1*
X1326455Y901263D2*
X1325029Y904115D1*
X1322144Y907000D1*
X1319292Y908426D1*
X1313555D1*
X1310670Y907000D1*
X1307818Y904115D1*
X1306359Y901263D1*
X1304933Y896952D1*
Y889756D1*
X1306359Y885478D1*
X1307818Y882593D1*
X1310670Y879741D1*
X1313555Y878282D1*
X1319292D1*
X1322144Y879741D1*
X1325029Y882593D1*
X1326455Y885478D1*
X1105886Y1063014D2*
D29*
Y1027144D1*
X1108262Y1019959D1*
X1113071Y1015205D1*
X1120256Y1012774D1*
X1125009D1*
X1132194Y1015205D1*
X1137002Y1019959D1*
X1139379Y1027144D1*
Y1063014D1*
X1154818Y1053397D2*
X1159627Y1055829D1*
X1166812Y1062958D1*
Y1012774D1*
M02*
